<svg width="320" height="51" viewBox="0 0 320 51" fill="none" xmlns="http://www.w3.org/2000/svg">
<path fill-rule="evenodd" clip-rule="evenodd" d="M0 0.00793457H320V50.0079H0V0.00793457Z" fill="#3750AA"/>
<path d="M75.6265 16H73.9883V8.14746H78.4893V9.51172H75.6265V11.5366H78.2905V12.8955H75.6265V16Z" fill="white"/>
<path d="M84.1504 16L83.9302 15.2319H83.8442C83.6688 15.5112 83.4199 15.7279 83.0977 15.8818C82.7754 16.0322 82.4084 16.1074 81.9966 16.1074C81.2912 16.1074 80.7594 15.9194 80.4014 15.5435C80.0433 15.1639 79.8643 14.6196 79.8643 13.9106V9.99512H81.5024V13.5024C81.5024 13.9357 81.5794 14.2616 81.7334 14.48C81.8874 14.6948 82.1326 14.8022 82.4692 14.8022C82.9276 14.8022 83.2588 14.6501 83.4629 14.3457C83.667 14.0378 83.769 13.5293 83.769 12.8203V9.99512H85.4072V16H84.1504Z" fill="white"/>
<path d="M89.6558 14.8022C89.9422 14.8022 90.286 14.7396 90.687 14.6143V15.8335C90.2788 16.0161 89.7775 16.1074 89.1831 16.1074C88.5278 16.1074 88.0498 15.9427 87.749 15.6133C87.4518 15.2803 87.3032 14.7826 87.3032 14.1201V11.2251H86.519V10.5322L87.4214 9.98438L87.894 8.7168H88.9414V9.99512H90.6226V11.2251H88.9414V14.1201C88.9414 14.3529 89.0059 14.5247 89.1348 14.6357C89.2673 14.7467 89.4409 14.8022 89.6558 14.8022Z" fill="white"/>
<path d="M96.1602 16L95.9399 15.2319H95.854C95.6785 15.5112 95.4297 15.7279 95.1074 15.8818C94.7852 16.0322 94.4181 16.1074 94.0063 16.1074C93.3009 16.1074 92.7692 15.9194 92.4111 15.5435C92.0531 15.1639 91.874 14.6196 91.874 13.9106V9.99512H93.5122V13.5024C93.5122 13.9357 93.5892 14.2616 93.7432 14.48C93.8971 14.6948 94.1424 14.8022 94.479 14.8022C94.9373 14.8022 95.2686 14.6501 95.4727 14.3457C95.6768 14.0378 95.7788 13.5293 95.7788 12.8203V9.99512H97.417V16H96.1602Z" fill="white"/>
<path d="M102.487 9.88232C102.709 9.88232 102.894 9.89844 103.041 9.93066L102.917 11.4668C102.785 11.431 102.623 11.4131 102.434 11.4131C101.911 11.4131 101.503 11.5474 101.209 11.8159C100.919 12.0845 100.774 12.4604 100.774 12.9438V16H99.1357V9.99512H100.376L100.618 11.0049H100.699C100.885 10.6683 101.136 10.3979 101.451 10.1938C101.769 9.98617 102.115 9.88232 102.487 9.88232Z" fill="white"/>
<path d="M106.618 11.0479C106.27 11.0479 105.998 11.1589 105.801 11.3809C105.604 11.5993 105.492 11.9108 105.463 12.3154H107.762C107.755 11.9108 107.649 11.5993 107.445 11.3809C107.241 11.1589 106.965 11.0479 106.618 11.0479ZM106.849 16.1074C105.882 16.1074 105.126 15.8407 104.582 15.3071C104.038 14.7736 103.766 14.0181 103.766 13.0405C103.766 12.0343 104.016 11.2573 104.518 10.7095C105.022 10.158 105.719 9.88232 106.607 9.88232C107.456 9.88232 108.116 10.124 108.589 10.6074C109.062 11.0908 109.298 11.7586 109.298 12.6108V13.4058H105.425C105.443 13.8713 105.581 14.2347 105.839 14.4961C106.097 14.7575 106.458 14.8882 106.924 14.8882C107.285 14.8882 107.627 14.8506 107.95 14.7754C108.272 14.7002 108.609 14.5802 108.959 14.4155V15.6831C108.673 15.8263 108.367 15.932 108.041 16C107.715 16.0716 107.318 16.1074 106.849 16.1074Z" fill="white"/>
<path d="M110.098 13.7227V12.3799H112.982V13.7227H110.098Z" fill="white"/>
<path d="M117.473 16.1074C116.767 16.1074 116.214 15.8514 115.813 15.3394H115.727C115.784 15.8407 115.813 16.1307 115.813 16.2095V18.6426H114.175V9.99512H115.507L115.738 10.7739H115.813C116.196 10.1795 116.764 9.88232 117.516 9.88232C118.225 9.88232 118.78 10.1562 119.181 10.7041C119.582 11.252 119.782 12.0129 119.782 12.9868C119.782 13.6278 119.687 14.1846 119.498 14.6572C119.311 15.1299 119.045 15.4897 118.697 15.7368C118.35 15.9839 117.942 16.1074 117.473 16.1074ZM116.989 11.1929C116.585 11.1929 116.289 11.3182 116.103 11.5688C115.917 11.8159 115.82 12.2259 115.813 12.7988V12.9761C115.813 13.6206 115.908 14.0825 116.098 14.3618C116.291 14.6411 116.595 14.7808 117.011 14.7808C117.745 14.7808 118.112 14.1756 118.112 12.9653C118.112 12.3745 118.021 11.9323 117.838 11.6387C117.659 11.3415 117.376 11.1929 116.989 11.1929Z" fill="white"/>
<path d="M124.487 9.88232C124.709 9.88232 124.894 9.89844 125.041 9.93066L124.917 11.4668C124.785 11.431 124.623 11.4131 124.434 11.4131C123.911 11.4131 123.503 11.5474 123.209 11.8159C122.919 12.0845 122.774 12.4604 122.774 12.9438V16H121.136V9.99512H122.376L122.618 11.0049H122.699C122.885 10.6683 123.136 10.3979 123.451 10.1938C123.769 9.98617 124.115 9.88232 124.487 9.88232Z" fill="white"/>
<path d="M127.436 12.9868C127.436 13.5812 127.533 14.0306 127.726 14.335C127.923 14.6393 128.242 14.7915 128.682 14.7915C129.119 14.7915 129.432 14.6411 129.622 14.3403C129.815 14.036 129.912 13.5848 129.912 12.9868C129.912 12.3924 129.815 11.9466 129.622 11.6494C129.429 11.3522 129.112 11.2036 128.671 11.2036C128.235 11.2036 127.919 11.3522 127.726 11.6494C127.533 11.943 127.436 12.3888 127.436 12.9868ZM131.588 12.9868C131.588 13.9644 131.33 14.7288 130.814 15.2803C130.299 15.8317 129.581 16.1074 128.661 16.1074C128.084 16.1074 127.576 15.9821 127.135 15.7314C126.695 15.4772 126.356 15.1138 126.12 14.6411C125.884 14.1685 125.766 13.617 125.766 12.9868C125.766 12.0057 126.022 11.243 126.534 10.6987C127.046 10.1545 127.765 9.88232 128.693 9.88232C129.269 9.88232 129.778 10.0076 130.218 10.2583C130.659 10.509 130.997 10.8688 131.233 11.3379C131.47 11.807 131.588 12.3566 131.588 12.9868Z" fill="white"/>
<path d="M134.247 12.9868C134.247 13.5812 134.343 14.0306 134.537 14.335C134.734 14.6393 135.052 14.7915 135.493 14.7915C135.93 14.7915 136.243 14.6411 136.433 14.3403C136.626 14.036 136.723 13.5848 136.723 12.9868C136.723 12.3924 136.626 11.9466 136.433 11.6494C136.239 11.3522 135.922 11.2036 135.482 11.2036C135.045 11.2036 134.73 11.3522 134.537 11.6494C134.343 11.943 134.247 12.3888 134.247 12.9868ZM138.398 12.9868C138.398 13.9644 138.141 14.7288 137.625 15.2803C137.109 15.8317 136.391 16.1074 135.471 16.1074C134.895 16.1074 134.386 15.9821 133.946 15.7314C133.505 15.4772 133.167 15.1138 132.931 14.6411C132.694 14.1685 132.576 13.617 132.576 12.9868C132.576 12.0057 132.832 11.243 133.344 10.6987C133.856 10.1545 134.576 9.88232 135.503 9.88232C136.08 9.88232 136.588 10.0076 137.029 10.2583C137.469 10.509 137.808 10.8688 138.044 11.3379C138.28 11.807 138.398 12.3566 138.398 12.9868Z" fill="white"/>
<path d="M143.071 11.2251H141.653V16H140.015V11.2251H139.113V10.4355L140.015 9.99512V9.55469C140.015 8.87077 140.183 8.37126 140.52 8.05615C140.857 7.74105 141.396 7.5835 142.137 7.5835C142.702 7.5835 143.206 7.66764 143.646 7.83594L143.227 9.03906C142.898 8.93522 142.593 8.8833 142.314 8.8833C142.081 8.8833 141.913 8.95312 141.809 9.09277C141.705 9.22884 141.653 9.4043 141.653 9.61914V9.99512H143.071V11.2251Z" fill="white"/>
<path d="M146.015 9.99512H147.809L148.942 13.3735C149.039 13.6672 149.105 14.0145 149.141 14.4155H149.173C149.212 14.0467 149.289 13.6994 149.404 13.3735L150.516 9.99512H152.272L149.731 16.7681C149.499 17.3947 149.166 17.8638 148.732 18.1753C148.303 18.4868 147.8 18.6426 147.223 18.6426C146.94 18.6426 146.663 18.6121 146.391 18.5513V17.2515C146.588 17.298 146.802 17.3213 147.035 17.3213C147.325 17.3213 147.578 17.2318 147.792 17.0527C148.011 16.8773 148.181 16.6105 148.303 16.2524L148.399 15.957L146.015 9.99512Z" fill="white"/>
<path d="M154.442 12.9868C154.442 13.5812 154.539 14.0306 154.732 14.335C154.929 14.6393 155.248 14.7915 155.688 14.7915C156.125 14.7915 156.438 14.6411 156.628 14.3403C156.821 14.036 156.918 13.5848 156.918 12.9868C156.918 12.3924 156.821 11.9466 156.628 11.6494C156.435 11.3522 156.118 11.2036 155.677 11.2036C155.24 11.2036 154.925 11.3522 154.732 11.6494C154.539 11.943 154.442 12.3888 154.442 12.9868ZM158.594 12.9868C158.594 13.9644 158.336 14.7288 157.82 15.2803C157.305 15.8317 156.587 16.1074 155.667 16.1074C155.09 16.1074 154.582 15.9821 154.141 15.7314C153.701 15.4772 153.362 15.1138 153.126 14.6411C152.89 14.1685 152.771 13.617 152.771 12.9868C152.771 12.0057 153.028 11.243 153.54 10.6987C154.052 10.1545 154.771 9.88232 155.699 9.88232C156.275 9.88232 156.784 10.0076 157.224 10.2583C157.665 10.509 158.003 10.8688 158.239 11.3379C158.476 11.807 158.594 12.3566 158.594 12.9868Z" fill="white"/>
<path d="M164.201 16L163.981 15.2319H163.895C163.72 15.5112 163.471 15.7279 163.148 15.8818C162.826 16.0322 162.459 16.1074 162.047 16.1074C161.342 16.1074 160.81 15.9194 160.452 15.5435C160.094 15.1639 159.915 14.6196 159.915 13.9106V9.99512H161.553V13.5024C161.553 13.9357 161.63 14.2616 161.784 14.48C161.938 14.6948 162.183 14.8022 162.52 14.8022C162.978 14.8022 163.31 14.6501 163.514 14.3457C163.718 14.0378 163.82 13.5293 163.82 12.8203V9.99512H165.458V16H164.201Z" fill="white"/>
<path d="M170.528 9.88232C170.75 9.88232 170.935 9.89844 171.082 9.93066L170.958 11.4668C170.826 11.431 170.664 11.4131 170.475 11.4131C169.952 11.4131 169.544 11.5474 169.25 11.8159C168.96 12.0845 168.815 12.4604 168.815 12.9438V16H167.177V9.99512H168.417L168.659 11.0049H168.74C168.926 10.6683 169.177 10.3979 169.492 10.1938C169.81 9.98617 170.156 9.88232 170.528 9.88232Z" fill="white"/>
<path d="M177.468 16.1074C175.599 16.1074 174.664 15.0815 174.664 13.0298C174.664 12.0093 174.918 11.2305 175.427 10.6934C175.935 10.1527 176.664 9.88232 177.613 9.88232C178.307 9.88232 178.931 10.0184 179.482 10.2905L178.999 11.5581C178.741 11.4543 178.501 11.3701 178.279 11.3057C178.057 11.2376 177.835 11.2036 177.613 11.2036C176.761 11.2036 176.334 11.8088 176.334 13.019C176.334 14.1935 176.761 14.7808 177.613 14.7808C177.928 14.7808 178.22 14.7396 178.488 14.6572C178.757 14.5713 179.025 14.4388 179.294 14.2598V15.6616C179.029 15.8299 178.76 15.9463 178.488 16.0107C178.22 16.0752 177.88 16.1074 177.468 16.1074Z" fill="white"/>
<path d="M184.504 16L184.187 15.1836H184.144C183.868 15.5309 183.584 15.7726 183.29 15.9087C183 16.0412 182.62 16.1074 182.151 16.1074C181.575 16.1074 181.12 15.9427 180.787 15.6133C180.458 15.2839 180.293 14.8148 180.293 14.2061C180.293 13.5687 180.515 13.0996 180.959 12.7988C181.407 12.4945 182.08 12.3262 182.979 12.2939L184.021 12.2617V11.9985C184.021 11.3898 183.709 11.0854 183.086 11.0854C182.606 11.0854 182.042 11.2305 181.394 11.5205L180.852 10.4141C181.543 10.0524 182.309 9.87158 183.15 9.87158C183.956 9.87158 184.574 10.047 185.003 10.3979C185.433 10.7489 185.648 11.2824 185.648 11.9985V16H184.504ZM184.021 13.2178L183.387 13.2393C182.91 13.2536 182.556 13.3395 182.323 13.4971C182.09 13.6546 181.974 13.8945 181.974 14.2168C181.974 14.6787 182.239 14.9097 182.769 14.9097C183.149 14.9097 183.451 14.8005 183.677 14.582C183.906 14.3636 184.021 14.0736 184.021 13.7119V13.2178Z" fill="white"/>
<path d="M190.691 9.88232C190.913 9.88232 191.098 9.89844 191.245 9.93066L191.121 11.4668C190.989 11.431 190.827 11.4131 190.638 11.4131C190.115 11.4131 189.707 11.5474 189.413 11.8159C189.123 12.0845 188.978 12.4604 188.978 12.9438V16H187.34V9.99512H188.581L188.822 11.0049H188.903C189.089 10.6683 189.34 10.3979 189.655 10.1938C189.973 9.98617 190.319 9.88232 190.691 9.88232Z" fill="white"/>
<path d="M194.822 11.0479C194.474 11.0479 194.202 11.1589 194.005 11.3809C193.808 11.5993 193.696 11.9108 193.667 12.3154H195.966C195.959 11.9108 195.853 11.5993 195.649 11.3809C195.445 11.1589 195.169 11.0479 194.822 11.0479ZM195.053 16.1074C194.086 16.1074 193.33 15.8407 192.786 15.3071C192.242 14.7736 191.97 14.0181 191.97 13.0405C191.97 12.0343 192.22 11.2573 192.722 10.7095C193.227 10.158 193.923 9.88232 194.811 9.88232C195.66 9.88232 196.32 10.124 196.793 10.6074C197.266 11.0908 197.502 11.7586 197.502 12.6108V13.4058H193.629C193.647 13.8713 193.785 14.2347 194.043 14.4961C194.301 14.7575 194.662 14.8882 195.128 14.8882C195.49 14.8882 195.832 14.8506 196.154 14.7754C196.476 14.7002 196.813 14.5802 197.164 14.4155V15.6831C196.877 15.8263 196.571 15.932 196.245 16C195.919 16.0716 195.522 16.1074 195.053 16.1074Z" fill="white"/>
<path d="M201.321 11.0479C200.973 11.0479 200.701 11.1589 200.504 11.3809C200.307 11.5993 200.195 11.9108 200.166 12.3154H202.465C202.458 11.9108 202.352 11.5993 202.148 11.3809C201.944 11.1589 201.668 11.0479 201.321 11.0479ZM201.552 16.1074C200.585 16.1074 199.829 15.8407 199.285 15.3071C198.741 14.7736 198.469 14.0181 198.469 13.0405C198.469 12.0343 198.719 11.2573 199.221 10.7095C199.726 10.158 200.422 9.88232 201.31 9.88232C202.159 9.88232 202.819 10.124 203.292 10.6074C203.765 11.0908 204.001 11.7586 204.001 12.6108V13.4058H200.128C200.146 13.8713 200.284 14.2347 200.542 14.4961C200.8 14.7575 201.161 14.8882 201.627 14.8882C201.989 14.8882 202.331 14.8506 202.653 14.7754C202.975 14.7002 203.312 14.5802 203.663 14.4155V15.6831C203.376 15.8263 203.07 15.932 202.744 16C202.418 16.0716 202.021 16.1074 201.552 16.1074Z" fill="white"/>
<path d="M208.685 9.88232C208.907 9.88232 209.091 9.89844 209.238 9.93066L209.114 11.4668C208.982 11.431 208.821 11.4131 208.631 11.4131C208.108 11.4131 207.7 11.5474 207.406 11.8159C207.116 12.0845 206.971 12.4604 206.971 12.9438V16H205.333V9.99512H206.574L206.815 11.0049H206.896C207.082 10.6683 207.333 10.3979 207.648 10.1938C207.967 9.98617 208.312 9.88232 208.685 9.88232Z" fill="white"/>
<path d="M215.715 14.8022C216.002 14.8022 216.346 14.7396 216.747 14.6143V15.8335C216.338 16.0161 215.837 16.1074 215.243 16.1074C214.587 16.1074 214.109 15.9427 213.809 15.6133C213.511 15.2803 213.363 14.7826 213.363 14.1201V11.2251H212.579V10.5322L213.481 9.98438L213.954 8.7168H215.001V9.99512H216.682V11.2251H215.001V14.1201C215.001 14.3529 215.065 14.5247 215.194 14.6357C215.327 14.7467 215.5 14.8022 215.715 14.8022Z" fill="white"/>
<path d="M219.271 12.9868C219.271 13.5812 219.368 14.0306 219.561 14.335C219.758 14.6393 220.077 14.7915 220.517 14.7915C220.954 14.7915 221.267 14.6411 221.457 14.3403C221.65 14.036 221.747 13.5848 221.747 12.9868C221.747 12.3924 221.65 11.9466 221.457 11.6494C221.264 11.3522 220.947 11.2036 220.506 11.2036C220.069 11.2036 219.754 11.3522 219.561 11.6494C219.368 11.943 219.271 12.3888 219.271 12.9868ZM223.423 12.9868C223.423 13.9644 223.165 14.7288 222.649 15.2803C222.134 15.8317 221.416 16.1074 220.496 16.1074C219.919 16.1074 219.411 15.9821 218.97 15.7314C218.53 15.4772 218.191 15.1138 217.955 14.6411C217.719 14.1685 217.601 13.617 217.601 12.9868C217.601 12.0057 217.857 11.243 218.369 10.6987C218.881 10.1545 219.6 9.88232 220.528 9.88232C221.104 9.88232 221.613 10.0076 222.053 10.2583C222.494 10.509 222.832 10.8688 223.068 11.3379C223.305 11.807 223.423 12.3566 223.423 12.9868Z" fill="white"/>
<path d="M226.678 16.1074C225.972 16.1074 225.417 15.8335 225.013 15.2856C224.612 14.7378 224.411 13.9787 224.411 13.0083C224.411 12.0236 224.615 11.2573 225.023 10.7095C225.435 10.158 226.001 9.88232 226.721 9.88232C227.476 9.88232 228.053 10.1759 228.45 10.7632H228.504C228.422 10.3156 228.38 9.91634 228.38 9.56543V7.64258H230.024V16H228.767L228.45 15.2212H228.38C228.008 15.812 227.44 16.1074 226.678 16.1074ZM227.252 14.8022C227.671 14.8022 227.978 14.6805 228.171 14.437C228.368 14.1935 228.475 13.7799 228.493 13.1963V13.019C228.493 12.3745 228.393 11.9126 228.192 11.6333C227.995 11.354 227.673 11.2144 227.226 11.2144C226.86 11.2144 226.576 11.3701 226.372 11.6816C226.171 11.9896 226.071 12.439 226.071 13.0298C226.071 13.6206 226.173 14.0646 226.377 14.3618C226.581 14.6554 226.873 14.8022 227.252 14.8022Z" fill="white"/>
<path d="M235.551 16L235.234 15.1836H235.191C234.915 15.5309 234.631 15.7726 234.337 15.9087C234.047 16.0412 233.667 16.1074 233.198 16.1074C232.622 16.1074 232.167 15.9427 231.834 15.6133C231.505 15.2839 231.34 14.8148 231.34 14.2061C231.34 13.5687 231.562 13.0996 232.006 12.7988C232.453 12.4945 233.127 12.3262 234.025 12.2939L235.067 12.2617V11.9985C235.067 11.3898 234.756 11.0854 234.133 11.0854C233.653 11.0854 233.089 11.2305 232.441 11.5205L231.898 10.4141C232.59 10.0524 233.356 9.87158 234.197 9.87158C235.003 9.87158 235.621 10.047 236.05 10.3979C236.48 10.7489 236.695 11.2824 236.695 11.9985V16H235.551ZM235.067 13.2178L234.434 13.2393C233.957 13.2536 233.603 13.3395 233.37 13.4971C233.137 13.6546 233.021 13.8945 233.021 14.2168C233.021 14.6787 233.286 14.9097 233.816 14.9097C234.195 14.9097 234.498 14.8005 234.724 14.582C234.953 14.3636 235.067 14.0736 235.067 13.7119V13.2178Z" fill="white"/>
<path d="M237.527 9.99512H239.321L240.455 13.3735C240.551 13.6672 240.618 14.0145 240.653 14.4155H240.686C240.725 14.0467 240.802 13.6994 240.917 13.3735L242.028 9.99512H243.785L241.244 16.7681C241.011 17.3947 240.678 17.8638 240.245 18.1753C239.815 18.4868 239.312 18.6426 238.736 18.6426C238.453 18.6426 238.175 18.6121 237.903 18.5513V17.2515C238.1 17.298 238.315 17.3213 238.548 17.3213C238.838 17.3213 239.09 17.2318 239.305 17.0527C239.524 16.8773 239.694 16.6105 239.815 16.2524L239.912 15.957L237.527 9.99512Z" fill="white"/>
<path d="M246.024 13.395H244.714L244.44 8.14746H246.298L246.024 13.395ZM244.418 15.2319C244.418 14.9312 244.499 14.7038 244.66 14.5498C244.821 14.3958 245.056 14.3188 245.364 14.3188C245.661 14.3188 245.89 14.3976 246.051 14.5552C246.216 14.7127 246.298 14.9383 246.298 15.2319C246.298 15.5148 246.216 15.7386 246.051 15.9033C245.887 16.0645 245.657 16.145 245.364 16.145C245.063 16.145 244.83 16.0662 244.666 15.9087C244.501 15.7476 244.418 15.522 244.418 15.2319Z" fill="white"/>
<path fill-rule="evenodd" clip-rule="evenodd" d="M105.686 20.278C91.1634 20.3201 77.7814 20.6542 74.0602 20.9425L73.9468 19.4469C77.7323 19.1536 91.1689 18.82 105.684 18.7779C120.196 18.7358 135.865 18.9846 144.103 19.8658L143.941 21.3573C135.798 20.4863 120.211 20.2358 105.686 20.278Z" fill="#F06500"/>
<path d="M127 38.33L129.59 31.1H131.13L133.715 38.33H132.26L131.67 36.655H129.07L128.465 38.33H127ZM129.395 35.38H131.32L130.365 32.51L129.395 35.38Z" fill="white"/>
<path d="M134.616 39.94V33.16H136.081L136.086 33.905C136.162 33.7817 136.256 33.67 136.366 33.57C136.479 33.4667 136.604 33.3767 136.741 33.3C136.877 33.2233 137.026 33.165 137.186 33.125C137.346 33.0817 137.514 33.06 137.691 33.06C138.074 33.06 138.416 33.155 138.716 33.345C139.016 33.5317 139.251 33.8217 139.421 34.215C139.594 34.605 139.681 35.1017 139.681 35.705C139.681 36.3317 139.587 36.8467 139.401 37.25C139.217 37.65 138.964 37.9467 138.641 38.14C138.317 38.3333 137.952 38.43 137.546 38.43C137.379 38.43 137.222 38.4067 137.076 38.36C136.929 38.3167 136.792 38.255 136.666 38.175C136.542 38.095 136.431 38.0033 136.331 37.9C136.234 37.7933 136.149 37.6783 136.076 37.555V39.94H134.616ZM137.196 37.36C137.512 37.36 137.777 37.2283 137.991 36.965C138.207 36.7017 138.316 36.285 138.316 35.715C138.316 35.215 138.212 34.825 138.006 34.545C137.802 34.2617 137.532 34.12 137.196 34.12C136.819 34.12 136.537 34.2733 136.351 34.58C136.167 34.8833 136.076 35.2617 136.076 35.715C136.076 36.005 136.116 36.275 136.196 36.525C136.279 36.775 136.402 36.9767 136.566 37.13C136.732 37.2833 136.942 37.36 137.196 37.36Z" fill="white"/>
<path d="M140.651 38.33V33.16H142.056V34.385C142.139 34.1217 142.256 33.8917 142.406 33.695C142.559 33.495 142.744 33.34 142.961 33.23C143.177 33.1167 143.422 33.06 143.696 33.06C143.742 33.06 143.786 33.0633 143.826 33.07C143.869 33.0733 143.901 33.08 143.921 33.09V34.48C143.891 34.4667 143.854 34.4583 143.811 34.455C143.771 34.4517 143.734 34.4483 143.701 34.445C143.414 34.4217 143.169 34.43 142.966 34.47C142.762 34.51 142.597 34.5783 142.471 34.675C142.344 34.7717 142.252 34.89 142.196 35.03C142.139 35.17 142.111 35.3267 142.111 35.5V38.33H140.651Z" fill="white"/>
<path d="M147.927 38.33V32.915H146.637V32.09C147.051 32.09 147.384 32.0517 147.637 31.975C147.894 31.895 148.086 31.7817 148.212 31.635C148.339 31.485 148.414 31.3067 148.437 31.1H149.407V38.33H147.927Z" fill="white"/>
<path d="M150.915 31.1H156.315V32.295C156.085 32.5817 155.853 32.92 155.62 33.31C155.39 33.7 155.168 34.1167 154.955 34.56C154.745 35.0033 154.555 35.4517 154.385 35.905C154.215 36.3583 154.078 36.7933 153.975 37.21C153.871 37.6267 153.815 38 153.805 38.33H152.23C152.256 38.0367 152.323 37.6667 152.43 37.22C152.536 36.77 152.691 36.2733 152.895 35.73C153.101 35.1833 153.36 34.6167 153.67 34.03C153.983 33.4433 154.356 32.865 154.79 32.295H150.915V31.1Z" fill="white"/>
<path d="M161.666 35.225V36.285L158.936 36.29V35.225H161.666Z" fill="white"/>
<path d="M163.875 38.33L166.465 31.1H168.005L170.59 38.33H169.135L168.545 36.655H165.945L165.34 38.33H163.875ZM166.27 35.38H168.195L167.24 32.51L166.27 35.38Z" fill="white"/>
<path d="M171.491 39.94V33.16H172.956L172.961 33.905C173.037 33.7817 173.131 33.67 173.241 33.57C173.354 33.4667 173.479 33.3767 173.616 33.3C173.752 33.2233 173.901 33.165 174.061 33.125C174.221 33.0817 174.389 33.06 174.566 33.06C174.949 33.06 175.291 33.155 175.591 33.345C175.891 33.5317 176.126 33.8217 176.296 34.215C176.469 34.605 176.556 35.1017 176.556 35.705C176.556 36.3317 176.462 36.8467 176.276 37.25C176.092 37.65 175.839 37.9467 175.516 38.14C175.192 38.3333 174.827 38.43 174.421 38.43C174.254 38.43 174.097 38.4067 173.951 38.36C173.804 38.3167 173.667 38.255 173.541 38.175C173.417 38.095 173.306 38.0033 173.206 37.9C173.109 37.7933 173.024 37.6783 172.951 37.555V39.94H171.491ZM174.071 37.36C174.387 37.36 174.652 37.2283 174.866 36.965C175.082 36.7017 175.191 36.285 175.191 35.715C175.191 35.215 175.087 34.825 174.881 34.545C174.677 34.2617 174.407 34.12 174.071 34.12C173.694 34.12 173.412 34.2733 173.226 34.58C173.042 34.8833 172.951 35.2617 172.951 35.715C172.951 36.005 172.991 36.275 173.071 36.525C173.154 36.775 173.277 36.9767 173.441 37.13C173.607 37.2833 173.817 37.36 174.071 37.36Z" fill="white"/>
<path d="M177.526 38.33V33.16H178.931V34.385C179.014 34.1217 179.131 33.8917 179.281 33.695C179.434 33.495 179.619 33.34 179.836 33.23C180.052 33.1167 180.297 33.06 180.571 33.06C180.617 33.06 180.661 33.0633 180.701 33.07C180.744 33.0733 180.776 33.08 180.796 33.09V34.48C180.766 34.4667 180.729 34.4583 180.686 34.455C180.646 34.4517 180.609 34.4483 180.576 34.445C180.289 34.4217 180.044 34.43 179.841 34.47C179.637 34.51 179.472 34.5783 179.346 34.675C179.219 34.7717 179.127 34.89 179.071 35.03C179.014 35.17 178.986 35.3267 178.986 35.5V38.33H177.526Z" fill="white"/>
<path d="M183.647 38.33V37.61V37.24C183.647 36.8733 183.716 36.5567 183.852 36.29C183.989 36.02 184.169 35.7867 184.392 35.59C184.619 35.39 184.866 35.215 185.132 35.065C185.402 34.915 185.672 34.7733 185.942 34.64C186.212 34.5067 186.459 34.3733 186.682 34.24C186.909 34.1033 187.091 33.9517 187.227 33.785C187.364 33.6183 187.432 33.4217 187.432 33.195C187.432 32.905 187.331 32.6683 187.127 32.485C186.927 32.3017 186.652 32.21 186.302 32.21C185.939 32.21 185.631 32.315 185.377 32.525C185.124 32.735 184.967 33.0517 184.907 33.475H183.512C183.519 33.015 183.626 32.5983 183.832 32.225C184.042 31.8483 184.356 31.55 184.772 31.33C185.189 31.11 185.712 31 186.342 31C186.882 31 187.347 31.0917 187.737 31.275C188.131 31.4583 188.434 31.7133 188.647 32.04C188.861 32.3667 188.967 32.7483 188.967 33.185C188.967 33.5483 188.901 33.8617 188.767 34.125C188.634 34.3883 188.457 34.6133 188.237 34.8C188.017 34.9867 187.776 35.15 187.512 35.29C187.249 35.43 186.986 35.56 186.722 35.68C186.462 35.8 186.222 35.9233 186.002 36.05C185.782 36.1733 185.606 36.3133 185.472 36.47C185.339 36.6267 185.272 36.815 185.272 37.035V37.1H188.957V38.33H183.647Z" fill="white"/>
<path d="M191.15 38.33V32.915H189.86V32.09C190.273 32.09 190.607 32.0517 190.86 31.975C191.117 31.895 191.308 31.7817 191.435 31.635C191.562 31.485 191.637 31.3067 191.66 31.1H192.63V38.33H191.15Z" fill="white"/>
<rect x="123.5" y="28.5" width="72.6301" height="13.94" rx="1.5" stroke="white"/>
<path d="M23.0839 26.5729L65.8314 21.0474L64.3978 34.5038L21.7191 41L23.0839 26.5746V26.5729Z" fill="#F5D049"/>
<path d="M33.9369 36.3328C33.4804 36.4029 33.052 36.3947 32.6487 36.3084C32.2485 36.2188 31.917 36.043 31.6559 35.7775C31.3949 35.5137 31.2463 35.1603 31.2119 34.7173C31.2073 34.6554 31.2057 34.6082 31.2057 34.5757L32.816 34.3167C32.8535 34.5919 32.977 34.7922 33.1881 34.9176C33.4022 35.0414 33.6758 35.0789 34.0088 35.0284C34.3418 34.9779 34.6483 34.8688 34.8796 34.7092C35.1157 34.5463 35.2408 34.333 35.2564 34.0692C35.258 34.0496 35.2564 34.022 35.2548 33.9861C35.2408 33.7988 35.1423 33.6686 34.9594 33.5953C34.7764 33.522 34.5232 33.4764 34.1964 33.4617L33.1286 33.408C32.669 33.3901 32.3047 33.2598 32.0343 33.0204C31.7654 32.781 31.6122 32.4325 31.5778 31.9765C31.57 31.8804 31.5684 31.7648 31.5746 31.6345C31.5981 31.1834 31.7388 30.7714 31.9936 30.3985C32.25 30.0223 32.5846 29.7145 32.9989 29.4702C33.4163 29.2276 33.8713 29.068 34.3637 28.9931C34.8718 28.9165 35.3205 28.9491 35.7129 29.0924C36.1038 29.2325 36.4102 29.4523 36.6275 29.752C36.8464 30.0516 36.9621 30.3936 36.9761 30.7779L35.4081 31.0271C35.3924 30.7193 35.2924 30.5092 35.1032 30.3969C34.9156 30.2845 34.6514 30.2552 34.3121 30.3073C33.9776 30.3578 33.7212 30.4636 33.5383 30.6265C33.3585 30.7877 33.2615 30.9717 33.2475 31.1802C33.2459 31.2388 33.2475 31.2812 33.2475 31.3072C33.26 31.4554 33.3225 31.5694 33.4366 31.6459C33.5508 31.7209 33.7415 31.7665 34.0088 31.7844L35.0672 31.843C36.1757 31.8935 36.7682 32.3918 36.8417 33.338C36.8526 33.4862 36.8526 33.6507 36.8385 33.8282C36.8167 34.2174 36.676 34.5903 36.4196 34.9453C36.1616 35.2987 35.8161 35.5984 35.3846 35.8426C34.9515 36.0885 34.4685 36.2514 33.9369 36.3328Z" fill="#111111"/>
<path d="M40.0045 28.2228L41.6022 27.9801L43.4736 34.7841L41.9368 35.0186L41.5538 33.5676L39.3604 33.9014L38.7788 35.5006L37.2279 35.7368L40.006 28.2244L40.0045 28.2228ZM41.2864 32.1703L40.7064 29.7194L39.7856 32.3983L41.2864 32.1703Z" fill="#111111"/>
<path d="M44.7649 27.498L46.311 27.2618L45.9546 33.017L48.6671 32.605L48.5764 34.0055L44.3083 34.6553L44.7633 27.4963L44.7649 27.498Z" fill="#111111"/>
<path d="M49.8835 26.7179L54.5314 26.0111L54.436 27.4182L51.3484 27.8888L51.2577 29.3496L53.8873 28.949L53.7997 30.3251L51.1654 30.7257L51.0685 32.2207L54.2031 31.7484L54.1093 33.1652L49.4285 33.8769L49.885 26.7179H49.8835Z" fill="#111111"/>
<path d="M13.0455 33.569L23.8844 31.9193L23.9266 32.4926L13.0861 34.1422L13.0455 33.569Z" fill="#F06500"/>
<path d="M10 36.9287L20.298 35.3605L20.3386 35.9337L10.0406 37.5004L10 36.9287Z" fill="white"/>
<path d="M11.9683 14.486L51.3639 9.00769L49.9991 23.4331L10.6035 28.9115L11.9683 14.486Z" fill="#F06500"/>
<path d="M16.424 17.569L21.0359 16.8671L20.9406 18.2595L17.8842 18.7252L17.7904 20.269L20.3871 19.8733L20.298 21.2299L17.7044 21.624L17.5277 24.4902L15.9675 24.7279L16.424 17.569Z" fill="white"/>
<path d="M22.1146 16.7024L23.6608 16.4663L23.3043 22.2215L26.0168 21.8095L25.9261 23.21L21.6581 23.8598L22.1146 16.7008V16.7024Z" fill="white"/>
<path d="M29.2124 15.6228L30.8102 15.3801L32.6816 22.1841L31.1448 22.4186L30.7617 20.9676L28.5683 21.3014L27.9867 22.9006L26.4359 23.1368L29.214 15.6244L29.2124 15.6228ZM30.4944 19.5703L29.9144 17.1194L28.9935 19.7983L30.4944 19.5703Z" fill="white"/>
<path d="M36.232 21.7412C35.7754 21.8112 35.3471 21.803 34.9437 21.7167C34.5435 21.6272 34.2121 21.4513 33.951 21.1858C33.6899 20.922 33.5414 20.5686 33.507 20.1257C33.5023 20.0638 33.5007 20.0165 33.5007 19.984L35.111 19.725C35.1485 20.0003 35.272 20.2006 35.4831 20.326C35.6973 20.4497 35.9709 20.4872 36.3039 20.4367C36.6525 20.383 36.9433 20.2771 37.1747 20.1175C37.4107 19.9547 37.5358 19.7413 37.5514 19.4775C37.553 19.458 37.5514 19.4303 37.5499 19.3945C37.5358 19.2072 37.4373 19.0769 37.2544 19.0036C37.0715 18.9303 36.8182 18.8847 36.4915 18.8701L35.4237 18.8163C34.9641 18.7984 34.5998 18.6681 34.3293 18.4287C34.0604 18.1893 33.9072 17.8408 33.8728 17.3849C33.865 17.2888 33.8634 17.1731 33.8697 17.0429C33.8931 16.5918 34.0338 16.1798 34.2887 15.8068C34.5435 15.4306 34.8796 15.1228 35.2939 14.8786C35.7113 14.6359 36.1663 14.4763 36.6588 14.4014C37.1669 14.3249 37.6155 14.3574 38.008 14.5007C38.3988 14.6408 38.7052 14.8606 38.9225 15.1603C39.1414 15.4599 39.2571 15.8019 39.2712 16.1863L37.7015 16.4354C37.6875 16.1276 37.5858 15.9176 37.3982 15.8052C37.2106 15.6928 36.9464 15.6635 36.6072 15.7156C36.2726 15.7661 36.0146 15.872 35.8333 16.0348C35.6535 16.196 35.5566 16.3801 35.5425 16.5885C35.5409 16.6471 35.5425 16.6895 35.5425 16.7155C35.555 16.8637 35.6175 16.9777 35.7317 17.0543C35.8458 17.1276 36.0365 17.1748 36.3039 17.1927L37.3623 17.2513C38.4707 17.3018 39.0632 17.8001 39.1367 18.7463C39.1477 18.8945 39.1477 19.059 39.1336 19.2365C39.1117 19.6257 38.971 19.9986 38.7146 20.3537C38.4566 20.707 38.1111 21.0067 37.6796 21.251C37.2466 21.4969 36.7635 21.6597 36.232 21.7412Z" fill="white"/>
<path d="M40.6063 13.8884L42.1572 13.6522L41.979 16.4435L44.1959 16.1064L44.3647 13.3151L45.9203 13.079L45.4653 20.238L43.9144 20.4741L44.0974 17.5004L41.8946 17.8359L41.7085 20.8112L40.153 21.0473L40.6095 13.8884H40.6063Z" fill="white"/>
<path d="M48.4826 13.6768L59.3231 12.0271L59.3637 12.6003L48.5248 14.25L48.4826 13.6768Z" fill="#F5D049"/>
<path d="M53.0242 15.8801L63.3222 14.3135L63.3644 14.8851L53.0664 16.4534L53.0242 15.8801Z" fill="white"/>
<path d="M299.688 38.5589C299.711 38.5071 299.739 38.4569 299.769 38.4082L299.821 38.3113C300.139 37.7285 300.539 37.2366 301.024 36.8353C301.51 36.4319 302.069 36.1296 302.703 35.9228L305.307 35.0736C305.915 34.8749 306.396 34.4736 306.691 33.9679L306.694 33.9695C306.988 33.4623 307.099 32.8473 306.968 32.2258L306.408 29.5676C306.272 28.9157 306.255 28.2873 306.365 27.6778C306.472 27.0678 306.704 26.4787 307.057 25.9093L308.497 23.6022C308.83 23.0666 308.934 22.4516 308.83 21.8702C308.726 21.2904 308.413 20.7469 307.914 20.3578L305.759 18.6727C305.23 18.2598 304.809 17.7836 304.494 17.2467C304.177 16.7017 303.967 16.1034 303.87 15.4515L303.468 12.7667C303.375 12.1398 303.056 11.6017 302.603 11.2259C302.146 10.8466 301.553 10.628 300.912 10.6455L298.167 10.722C297.499 10.7394 296.869 10.6431 296.277 10.4296C295.678 10.2141 295.13 9.88687 294.633 9.4487L292.581 7.64135C292.104 7.2219 291.509 7.00994 290.915 7.00913C290.322 7.00832 289.729 7.21867 289.252 7.63681L287.205 9.43858C286.709 9.87539 286.162 10.2011 285.563 10.415C284.972 10.6269 284.342 10.7234 283.674 10.7022L280.929 10.6182C280.288 10.599 279.695 10.816 279.24 11.1941C278.788 11.5686 278.471 12.1062 278.379 12.7326L277.985 15.4162C277.889 16.0679 277.683 16.6655 277.365 17.2098C277.052 17.7454 276.633 18.2189 276.104 18.6323L273.954 20.3116C273.456 20.7012 273.145 21.2419 273.042 21.8215C272.94 22.4026 273.045 23.0194 273.38 23.556L274.826 25.8669C275.181 26.4354 275.414 27.0255 275.524 27.6373C275.633 28.2456 275.62 28.8755 275.486 29.5271L274.933 32.1837C274.809 32.7835 274.909 33.3785 275.182 33.8748L275.214 33.9267C275.509 34.4331 275.993 34.8374 276.601 35.0361L279.207 35.8924C279.842 36.1009 280.401 36.4067 280.888 36.8094C281.374 37.2121 281.776 37.7055 282.096 38.2887L282.148 38.3858C282.178 38.4345 282.206 38.4848 282.229 38.5367L283.4 40.6794C283.705 41.2377 284.19 41.6354 284.746 41.8356C285.306 42.0373 285.938 42.0417 286.533 41.8096L289.083 40.811C289.713 40.5637 290.339 40.4407 290.963 40.4415L290.963 40.4466C291.595 40.4475 292.22 40.5706 292.843 40.8161L295.396 41.8216C295.991 42.0554 296.624 42.0528 297.183 41.8525C297.738 41.6538 298.221 41.2559 298.525 40.7L299.69 38.5605L299.688 38.5589Z" fill="#D2B33F"/>
<path d="M299.396 38.0824C299.419 38.0324 299.445 37.9839 299.475 37.9369L299.525 37.8433C299.833 37.2802 300.219 36.805 300.688 36.4173C301.158 36.0276 301.699 35.7356 302.311 35.5358L304.828 34.7153C305.416 34.5234 305.881 34.1356 306.166 33.6472L306.169 33.6487C306.453 33.1587 306.561 32.5645 306.434 31.964L305.893 29.396C305.761 28.7662 305.745 28.1591 305.851 27.5702C305.955 26.9809 306.178 26.4118 306.52 25.8617L307.912 23.6328C308.234 23.1154 308.334 22.5212 308.234 21.9595C308.133 21.3994 307.831 20.8743 307.349 20.4984L305.265 18.8704C304.753 18.4715 304.347 18.0114 304.042 17.4928C303.735 16.9662 303.533 16.3882 303.439 15.7584L303.05 13.1647C302.961 12.5589 302.652 12.0391 302.214 11.676C301.773 11.3096 301.199 11.0984 300.579 11.1153L297.926 11.1892C297.281 11.206 296.671 11.113 296.099 10.9067C295.52 10.6985 294.991 10.3824 294.51 9.95907L292.526 8.21299C292.065 7.80776 291.49 7.60298 290.916 7.6022C290.343 7.60142 289.769 7.80463 289.308 8.2086L287.329 9.94929C286.85 10.3713 286.321 10.686 285.743 10.8926C285.171 11.0973 284.562 11.1906 283.916 11.1701L281.263 11.089C280.643 11.0704 280.07 11.28 279.63 11.6453C279.193 12.0071 278.887 12.5265 278.798 13.1316L278.416 15.7243C278.324 16.3538 278.125 16.9313 277.818 17.457C277.515 17.9745 277.11 18.432 276.599 18.8314L274.52 20.4537C274.039 20.8302 273.738 21.3525 273.639 21.9124C273.54 22.4738 273.642 23.0698 273.966 23.5881L275.363 25.8207C275.707 26.37 275.932 26.9401 276.038 27.5311C276.143 28.1188 276.131 28.7274 276.001 29.3568L275.467 31.9234C275.346 32.5028 275.444 33.0777 275.707 33.5572L275.738 33.6073C276.024 34.0966 276.492 34.4871 277.079 34.6791L279.598 35.5064C280.212 35.7078 280.753 36.0033 281.223 36.3923C281.692 36.7814 282.081 37.258 282.39 37.8215L282.441 37.9152C282.471 37.9623 282.497 38.0109 282.52 38.061L283.652 40.1311C283.946 40.6705 284.415 41.0546 284.953 41.2481C285.494 41.443 286.105 41.4472 286.68 41.2229L289.145 40.2583C289.754 40.0193 290.359 39.9005 290.962 39.9013L290.962 39.9062C291.573 39.907 292.178 40.026 292.78 40.2632L295.247 41.2346C295.823 41.4605 296.434 41.4579 296.975 41.2644C297.512 41.0725 297.978 40.6881 298.273 40.151L299.399 38.084L299.396 38.0824Z" fill="#F5D049"/>
<path d="M279.667 33.6824L283.16 26.108L279.589 26.5791L279.746 24.509L286.154 23.6636L286.033 25.1272L282.454 33.3147L279.667 33.6824Z" fill="#49180D"/>
<path d="M289.899 32.4577C289.066 32.5677 288.38 32.4053 287.843 31.9707C287.309 31.5355 286.974 30.8193 286.836 29.8222C286.765 29.3134 286.73 28.802 286.731 28.288C286.731 27.7699 286.771 27.2673 286.852 26.7804C286.932 26.2935 287.057 25.8362 287.225 25.4087C287.394 24.9811 287.611 24.5973 287.877 24.2573C288.142 23.9172 288.461 23.6392 288.832 23.423C289.207 23.2023 289.637 23.0599 290.122 22.9958C290.607 22.9318 291.03 22.9659 291.39 23.098C291.754 23.2254 292.06 23.4232 292.309 23.6913C292.557 23.9594 292.754 24.2718 292.901 24.6285C293.047 24.9811 293.147 25.3502 293.2 25.736C293.275 26.2776 293.311 26.8118 293.308 27.3387C293.304 27.8615 293.258 28.3628 293.168 28.8426C293.078 29.3224 292.945 29.7681 292.77 30.1799C292.595 30.5916 292.371 30.9574 292.099 31.2775C291.83 31.597 291.514 31.8581 291.149 32.0609C290.784 32.2636 290.368 32.3958 289.899 32.4577ZM289.873 30.4869C290.018 30.4677 290.147 30.3861 290.257 30.2419C290.368 30.0936 290.462 29.9016 290.539 29.6658C290.619 29.4253 290.684 29.1557 290.731 28.857C290.782 28.5577 290.817 28.244 290.835 27.9157C290.857 27.5869 290.862 27.2603 290.851 26.9358C290.84 26.6073 290.814 26.2974 290.773 26.006C290.725 25.6572 290.648 25.3937 290.543 25.2153C290.438 25.0329 290.294 24.9537 290.111 24.9777C289.987 24.9942 289.874 25.076 289.772 25.2231C289.669 25.3703 289.58 25.5639 289.504 25.8038C289.427 26.0437 289.364 26.3174 289.313 26.6248C289.262 26.9282 289.226 27.2484 289.205 27.5854C289.188 27.9178 289.184 28.2526 289.193 28.5899C289.201 28.9272 289.227 29.2477 289.269 29.5513C289.316 29.8919 289.382 30.1401 289.467 30.2961C289.555 30.4473 289.691 30.5109 289.873 30.4869Z" fill="#49180D"/>
<path d="M295.742 25.6484L298.298 21.0748L299.129 20.9651L296.596 25.5357L295.742 25.6484ZM295.936 23.9856C295.635 24.0253 295.394 23.9731 295.212 23.8291C295.03 23.685 294.916 23.4518 294.872 23.1293C294.853 22.9927 294.846 22.8477 294.852 22.6943C294.86 22.5406 294.885 22.3886 294.927 22.2382C294.968 22.0859 295.03 21.9464 295.112 21.8197C295.196 21.6908 295.303 21.583 295.433 21.4962C295.564 21.4094 295.723 21.3537 295.911 21.3289C296.218 21.2884 296.459 21.3435 296.634 21.4943C296.811 21.6448 296.921 21.8756 296.964 22.1867C296.983 22.3214 296.989 22.4655 296.983 22.6189C296.979 22.772 296.957 22.9237 296.917 23.0738C296.879 23.2237 296.819 23.3629 296.738 23.4916C296.658 23.6199 296.552 23.7286 296.419 23.8175C296.289 23.9043 296.128 23.9603 295.936 23.9856ZM295.895 23.2897C295.941 23.2837 295.981 23.2563 296.013 23.2076C296.047 23.1586 296.075 23.0961 296.095 23.02C296.118 22.9417 296.133 22.8575 296.142 22.7674C296.153 22.6752 296.158 22.5838 296.157 22.4931C296.156 22.4024 296.15 22.3192 296.14 22.2433C296.129 22.1617 296.109 22.1034 296.081 22.0685C296.052 22.0317 296.01 22.017 295.954 22.0243C295.912 22.0299 295.875 22.0561 295.842 22.1029C295.81 22.1497 295.782 22.2103 295.759 22.2848C295.736 22.3593 295.719 22.4417 295.708 22.532C295.698 22.6223 295.692 22.7139 295.691 22.8067C295.69 22.8996 295.695 22.9877 295.707 23.0712C295.718 23.149 295.738 23.2071 295.769 23.2455C295.8 23.2821 295.842 23.2968 295.895 23.2897ZM298.994 25.2773C298.693 25.317 298.452 25.2658 298.27 25.1236C298.088 24.9796 297.974 24.7453 297.929 24.4209C297.91 24.2843 297.904 24.1393 297.91 23.9859C297.918 23.8322 297.943 23.6802 297.985 23.5298C298.026 23.3795 298.088 23.2409 298.17 23.1142C298.254 22.9853 298.361 22.8775 298.491 22.7907C298.622 22.7039 298.781 22.6482 298.969 22.6234C299.276 22.5829 299.518 22.6379 299.695 22.7884C299.872 22.9389 299.982 23.1697 300.025 23.4808C300.044 23.6155 300.05 23.7596 300.044 23.913C300.039 24.0643 300.018 24.2159 299.978 24.3679C299.94 24.5178 299.88 24.6571 299.799 24.7857C299.719 24.9122 299.612 25.0199 299.48 25.1088C299.348 25.1958 299.186 25.252 298.994 25.2773ZM298.954 24.5842C299 24.5782 299.039 24.5508 299.071 24.5021C299.105 24.4531 299.133 24.3906 299.154 24.3145C299.176 24.2362 299.192 24.152 299.201 24.062C299.211 23.9698 299.216 23.8783 299.215 23.7876C299.214 23.6969 299.209 23.6137 299.198 23.5378C299.187 23.4543 299.167 23.3951 299.139 23.3602C299.11 23.3253 299.068 23.3115 299.013 23.3189C298.971 23.3244 298.933 23.3506 298.901 23.3974C298.868 23.4442 298.84 23.5048 298.817 23.5793C298.795 23.6538 298.778 23.7362 298.767 23.8265C298.756 23.9168 298.75 24.0084 298.749 24.1012C298.748 24.1941 298.754 24.2822 298.765 24.3657C298.776 24.4435 298.797 24.5016 298.827 24.54C298.858 24.5766 298.9 24.5913 298.954 24.5842Z" fill="#49180D"/>
<path d="M296.922 32.127C296.599 32.1696 296.322 32.1453 296.09 32.0543C295.859 31.963 295.675 31.817 295.536 31.6162C295.397 31.4137 295.308 31.1673 295.268 30.877C295.241 30.6824 295.232 30.4862 295.242 30.2885C295.251 30.0908 295.281 29.8974 295.33 29.7083C295.379 29.5175 295.449 29.3379 295.54 29.1695C295.631 29.001 295.744 28.8495 295.88 28.7151C296.016 28.579 296.175 28.4658 296.358 28.3757C296.542 28.2853 296.752 28.2246 296.986 28.1936C297.452 28.1321 297.824 28.2171 298.1 28.4483C298.378 28.6794 298.547 29.0126 298.607 29.448C298.634 29.6427 298.643 29.8397 298.634 30.0391C298.626 30.2366 298.598 30.4306 298.551 30.6212C298.505 30.8098 298.437 30.9882 298.348 31.1565C298.259 31.3247 298.147 31.4768 298.013 31.6127C297.881 31.7467 297.724 31.8586 297.543 31.9486C297.362 32.0368 297.155 32.0963 296.922 32.127ZM296.896 31.2881C296.98 31.277 297.059 31.2475 297.131 31.1997C297.204 31.1519 297.269 31.0894 297.327 31.0122C297.386 30.9331 297.436 30.8422 297.476 30.7395C297.518 30.6349 297.55 30.522 297.574 30.4006C297.597 30.2776 297.61 30.1481 297.613 30.0122C297.615 29.8763 297.606 29.7366 297.586 29.5932C297.559 29.4002 297.497 29.2537 297.399 29.1537C297.301 29.0536 297.173 29.014 297.016 29.0347C296.921 29.0472 296.835 29.0803 296.758 29.1339C296.681 29.1875 296.613 29.2566 296.552 29.341C296.494 29.4253 296.444 29.5214 296.402 29.6294C296.361 29.7374 296.329 29.853 296.305 29.976C296.284 30.0988 296.271 30.2248 296.268 30.3539C296.267 30.4827 296.275 30.6103 296.292 30.7367C296.311 30.8716 296.346 30.9826 296.396 31.0698C296.449 31.1567 296.516 31.2191 296.599 31.2569C296.683 31.2928 296.782 31.3032 296.896 31.2881Z" fill="#49180D"/>
<path d="M299.185 31.7762L299.467 27.9263L301.698 27.6319L301.637 28.4667L300.418 28.6276L300.367 29.3619L301.495 29.213L301.43 30.0536L300.296 30.2032L300.197 31.6427L299.185 31.7762Z" fill="#49180D"/>
<path d="M302.204 31.378L302.485 27.5281L304.716 27.2337L304.655 28.0684L303.436 28.2293L303.385 28.9637L304.514 28.8147L304.448 29.6553L303.314 29.8049L303.216 31.2444L302.204 31.378Z" fill="#49180D"/>
<path d="M281.374 22.2547C281.115 22.2888 280.892 22.2757 280.704 22.2152C280.517 22.1548 280.368 22.0527 280.258 21.9089C280.149 21.7635 280.079 21.5823 280.049 21.3655C280.041 21.3091 280.035 21.2421 280.031 21.1643C280.029 21.0864 280.032 21.0078 280.038 20.9287L280.217 18.5424L280.83 18.4615L280.653 20.8529C280.647 20.9249 280.643 20.9967 280.643 21.068C280.644 21.1392 280.648 21.1995 280.655 21.249C280.679 21.4249 280.75 21.5546 280.867 21.6383C280.985 21.7217 281.148 21.7498 281.355 21.7225C281.538 21.6983 281.686 21.6458 281.798 21.565C281.909 21.4825 281.993 21.3706 282.049 21.2293C282.107 21.0879 282.143 20.9171 282.157 20.7169L282.339 18.2624L282.953 18.1814L282.768 20.6937C282.747 20.9729 282.688 21.2224 282.59 21.4422C282.492 21.662 282.345 21.8423 282.148 21.983C281.951 22.122 281.693 22.2125 281.374 22.2547Z" fill="#49180D"/>
<path d="M283.449 23.2092L283.76 19.0008L284.233 18.9383L284.244 19.435L284.265 19.4322C284.322 19.329 284.39 19.2306 284.466 19.137C284.543 19.0434 284.632 18.9639 284.734 18.8983C284.837 18.8325 284.954 18.791 285.086 18.7737C285.232 18.7543 285.37 18.7726 285.499 18.8286C285.63 18.8827 285.74 18.9793 285.832 19.1185C285.925 19.2558 285.987 19.4405 286.019 19.6728C286.046 19.8674 286.052 20.0614 286.037 20.2546C286.023 20.446 285.988 20.6287 285.933 20.8029C285.878 20.9771 285.803 21.1347 285.709 21.2759C285.616 21.4151 285.503 21.5299 285.372 21.6202C285.24 21.7089 285.089 21.7644 284.92 21.7867C284.796 21.8031 284.686 21.7968 284.591 21.7676C284.497 21.7365 284.415 21.69 284.345 21.628C284.275 21.5659 284.213 21.4958 284.16 21.4176L284.137 21.4207C284.142 21.5226 284.145 21.6292 284.144 21.7405C284.144 21.8518 284.139 21.9585 284.13 22.0605L284.052 23.1296L283.449 23.2092ZM284.772 21.3081C284.871 21.2952 284.958 21.2566 285.036 21.1925C285.113 21.1268 285.179 21.0424 285.235 20.9393C285.291 20.8363 285.335 20.7202 285.366 20.5908C285.397 20.4615 285.417 20.3269 285.424 20.1869C285.43 20.0452 285.424 19.9043 285.405 19.7643C285.38 19.5901 285.328 19.4641 285.247 19.3861C285.167 19.3062 285.059 19.2752 284.923 19.2932C284.84 19.3042 284.764 19.336 284.694 19.3887C284.623 19.4397 284.56 19.5054 284.505 19.5857C284.449 19.6661 284.401 19.7576 284.361 19.8603C284.32 19.9612 284.289 20.068 284.266 20.1806C284.242 20.2932 284.228 20.4063 284.223 20.52C284.219 20.6335 284.225 20.7423 284.239 20.8465C284.261 21.0036 284.317 21.1248 284.408 21.2102C284.501 21.2953 284.622 21.328 284.772 21.3081Z" fill="#49180D"/>
<path d="M288.925 21.2584C288.716 21.2859 288.54 21.2622 288.396 21.1873C288.253 21.1105 288.166 20.9551 288.133 20.7212C288.127 20.6751 288.123 20.6244 288.12 20.5691C288.119 20.5118 288.121 20.4525 288.125 20.3912L288.236 18.8743L287.822 18.929L287.839 18.6346L288.301 18.3728L288.544 17.7305L288.925 17.6803L288.877 18.3255L289.607 18.2292L289.572 18.6981L288.845 18.794L288.731 20.3138C288.727 20.3508 288.725 20.3902 288.723 20.4321C288.724 20.4721 288.726 20.5083 288.731 20.5407C288.741 20.6176 288.771 20.6745 288.82 20.7115C288.869 20.7485 288.938 20.7612 289.026 20.7495C289.093 20.7407 289.157 20.7253 289.217 20.7034C289.277 20.6816 289.343 20.6529 289.413 20.6175L289.476 21.0709C289.416 21.1083 289.337 21.1449 289.238 21.1805C289.14 21.2178 289.035 21.2438 288.925 21.2584Z" fill="#49180D"/>
<path d="M291.202 20.9527C290.985 20.9814 290.789 20.962 290.614 20.8946C290.44 20.8272 290.296 20.7184 290.184 20.568C290.073 20.4157 290.003 20.2277 289.972 20.0041C289.945 19.8145 289.94 19.6275 289.954 19.443C289.971 19.2583 290.008 19.083 290.066 18.9171C290.124 18.7513 290.204 18.6024 290.307 18.4706C290.41 18.3371 290.536 18.2275 290.684 18.1419C290.832 18.0546 291.003 17.9981 291.198 17.9724C291.421 17.943 291.618 17.9621 291.791 18.0297C291.964 18.0973 292.105 18.2083 292.214 18.3625C292.323 18.5167 292.394 18.7091 292.426 18.9396C292.451 19.124 292.456 19.3067 292.441 19.4878C292.427 19.6687 292.393 19.842 292.336 20.0076C292.28 20.1715 292.2 20.3202 292.098 20.4537C291.996 20.5853 291.871 20.6949 291.721 20.7824C291.574 20.8697 291.401 20.9265 291.202 20.9527ZM291.178 20.4551C291.275 20.4424 291.361 20.4092 291.438 20.3556C291.517 20.3 291.584 20.2277 291.64 20.1386C291.696 20.0477 291.74 19.9437 291.771 19.8266C291.804 19.7075 291.824 19.578 291.831 19.438C291.838 19.298 291.83 19.1503 291.809 18.9949C291.794 18.8908 291.765 18.7964 291.722 18.7117C291.678 18.6253 291.617 18.5595 291.537 18.5145C291.458 18.4675 291.359 18.4518 291.24 18.4675C291.133 18.4816 291.038 18.5202 290.956 18.5833C290.875 18.6444 290.806 18.7239 290.749 18.8218C290.694 18.9195 290.651 19.0294 290.621 19.1517C290.59 19.2722 290.571 19.3998 290.565 19.5345C290.559 19.6675 290.565 19.8005 290.584 19.9337C290.61 20.1232 290.673 20.2635 290.774 20.3546C290.876 20.4437 291.011 20.4772 291.178 20.4551Z" fill="#49180D"/>
<path fill-rule="evenodd" clip-rule="evenodd" d="M270.096 34.782C270.064 34.5486 270.23 34.3343 270.465 34.3032L278.186 33.2845C278.421 33.2534 278.638 33.4173 278.67 33.6507C278.702 33.884 278.537 34.0984 278.301 34.1295L270.581 35.1482C270.345 35.1793 270.128 35.0153 270.096 34.782Z" fill="#F06500"/>
<path fill-rule="evenodd" clip-rule="evenodd" d="M266.004 37.8112C265.972 37.5779 266.137 37.3635 266.373 37.3324L274.093 36.3138C274.329 36.2826 274.546 36.4466 274.578 36.6799C274.61 36.9133 274.445 37.1276 274.209 37.1588L266.489 38.1774C266.253 38.2085 266.036 38.0446 266.004 37.8112Z" fill="#F5D049"/>
<path d="M304.259 7L304.669 12.3216L306.361 7.23751L304.259 7Z" fill="#F5D049"/>
<path d="M308.311 7.98254L304.98 13.1263L309.779 9.40612L308.311 7.98254Z" fill="#F06500"/>
<path d="M309.815 12.2522L305.21 13.5332L310 13.5051L309.815 12.2522Z" fill="#F5D049"/>
</svg>
